<mxfile host="app.diagrams.net" agent="Mozilla/5.0 (Windows NT 10.0; Win64; x64) AppleWebKit/537.36 (KHTML, like Gecko) Chrome/135.0.0.0 Safari/537.36" version="26.2.13">
  <diagram name="Page-1" id="SpCLHyw3w-fDd1gSGfi8">
    <mxGraphModel dx="1428" dy="751" grid="1" gridSize="10" guides="1" tooltips="1" connect="1" arrows="1" fold="1" page="1" pageScale="1" pageWidth="1600" pageHeight="900" background="none" math="0" shadow="0">
      <root>
        <mxCell id="0" />
        <mxCell id="1" parent="0" />
        <mxCell id="BDpEDTF0AWE_DL_EVBVq-15" style="edgeStyle=orthogonalEdgeStyle;rounded=0;orthogonalLoop=1;jettySize=auto;html=1;exitX=0.5;exitY=0;exitDx=0;exitDy=0;entryX=0;entryY=0.5;entryDx=0;entryDy=0;" parent="1" source="BDpEDTF0AWE_DL_EVBVq-1" target="BDpEDTF0AWE_DL_EVBVq-14" edge="1">
          <mxGeometry relative="1" as="geometry" />
        </mxCell>
        <mxCell id="BDpEDTF0AWE_DL_EVBVq-16" style="edgeStyle=orthogonalEdgeStyle;rounded=0;orthogonalLoop=1;jettySize=auto;html=1;exitX=0.5;exitY=0;exitDx=0;exitDy=0;entryX=0;entryY=0.5;entryDx=0;entryDy=0;" parent="1" source="BDpEDTF0AWE_DL_EVBVq-1" target="BDpEDTF0AWE_DL_EVBVq-11" edge="1">
          <mxGeometry relative="1" as="geometry" />
        </mxCell>
        <mxCell id="BDpEDTF0AWE_DL_EVBVq-26" style="edgeStyle=orthogonalEdgeStyle;rounded=0;orthogonalLoop=1;jettySize=auto;html=1;exitX=0.5;exitY=0;exitDx=0;exitDy=0;entryX=0.5;entryY=1;entryDx=0;entryDy=0;" parent="1" source="BDpEDTF0AWE_DL_EVBVq-1" target="BDpEDTF0AWE_DL_EVBVq-17" edge="1">
          <mxGeometry relative="1" as="geometry" />
        </mxCell>
        <mxCell id="BDpEDTF0AWE_DL_EVBVq-27" style="edgeStyle=orthogonalEdgeStyle;rounded=0;orthogonalLoop=1;jettySize=auto;html=1;exitX=0.5;exitY=0;exitDx=0;exitDy=0;entryX=1;entryY=0.5;entryDx=0;entryDy=0;" parent="1" source="BDpEDTF0AWE_DL_EVBVq-1" target="BDpEDTF0AWE_DL_EVBVq-23" edge="1">
          <mxGeometry relative="1" as="geometry" />
        </mxCell>
        <mxCell id="BDpEDTF0AWE_DL_EVBVq-28" style="edgeStyle=orthogonalEdgeStyle;rounded=0;orthogonalLoop=1;jettySize=auto;html=1;exitX=0.5;exitY=0;exitDx=0;exitDy=0;entryX=1;entryY=0.5;entryDx=0;entryDy=0;" parent="1" source="BDpEDTF0AWE_DL_EVBVq-1" target="BDpEDTF0AWE_DL_EVBVq-19" edge="1">
          <mxGeometry relative="1" as="geometry" />
        </mxCell>
        <mxCell id="BDpEDTF0AWE_DL_EVBVq-29" style="edgeStyle=orthogonalEdgeStyle;rounded=0;orthogonalLoop=1;jettySize=auto;html=1;exitX=0.5;exitY=0;exitDx=0;exitDy=0;entryX=1;entryY=0.5;entryDx=0;entryDy=0;" parent="1" source="BDpEDTF0AWE_DL_EVBVq-1" target="BDpEDTF0AWE_DL_EVBVq-3" edge="1">
          <mxGeometry relative="1" as="geometry" />
        </mxCell>
        <mxCell id="BDpEDTF0AWE_DL_EVBVq-56" style="edgeStyle=orthogonalEdgeStyle;rounded=0;orthogonalLoop=1;jettySize=auto;html=1;exitX=0.5;exitY=0;exitDx=0;exitDy=0;entryX=0;entryY=0.5;entryDx=0;entryDy=0;" parent="1" source="BDpEDTF0AWE_DL_EVBVq-1" target="BDpEDTF0AWE_DL_EVBVq-53" edge="1">
          <mxGeometry relative="1" as="geometry" />
        </mxCell>
        <mxCell id="BDpEDTF0AWE_DL_EVBVq-57" style="edgeStyle=orthogonalEdgeStyle;rounded=0;orthogonalLoop=1;jettySize=auto;html=1;exitX=0.5;exitY=0;exitDx=0;exitDy=0;entryX=1;entryY=0.5;entryDx=0;entryDy=0;" parent="1" source="BDpEDTF0AWE_DL_EVBVq-1" target="BDpEDTF0AWE_DL_EVBVq-55" edge="1">
          <mxGeometry relative="1" as="geometry" />
        </mxCell>
        <mxCell id="BDpEDTF0AWE_DL_EVBVq-69" style="edgeStyle=orthogonalEdgeStyle;rounded=0;orthogonalLoop=1;jettySize=auto;html=1;exitX=0.5;exitY=1;exitDx=0;exitDy=0;entryX=1;entryY=0.5;entryDx=0;entryDy=0;" parent="1" source="BDpEDTF0AWE_DL_EVBVq-1" target="BDpEDTF0AWE_DL_EVBVq-68" edge="1">
          <mxGeometry relative="1" as="geometry" />
        </mxCell>
        <mxCell id="BDpEDTF0AWE_DL_EVBVq-70" style="edgeStyle=orthogonalEdgeStyle;rounded=0;orthogonalLoop=1;jettySize=auto;html=1;exitX=0.5;exitY=1;exitDx=0;exitDy=0;entryX=0;entryY=0.5;entryDx=0;entryDy=0;" parent="1" source="BDpEDTF0AWE_DL_EVBVq-1" target="BDpEDTF0AWE_DL_EVBVq-67" edge="1">
          <mxGeometry relative="1" as="geometry" />
        </mxCell>
        <mxCell id="BDpEDTF0AWE_DL_EVBVq-99" value="ONE TO MANY" style="edgeStyle=orthogonalEdgeStyle;rounded=0;orthogonalLoop=1;jettySize=auto;html=1;exitX=1;exitY=0.25;exitDx=0;exitDy=0;entryX=0;entryY=0.25;entryDx=0;entryDy=0;fillColor=#d5e8d4;strokeColor=#82b366;" parent="1" source="BDpEDTF0AWE_DL_EVBVq-1" target="BDpEDTF0AWE_DL_EVBVq-36" edge="1">
          <mxGeometry relative="1" as="geometry" />
        </mxCell>
        <mxCell id="zXt6T8_A0Qbx5lt6x_ep-111" value="ONE TO MANY" style="edgeStyle=orthogonalEdgeStyle;rounded=0;orthogonalLoop=1;jettySize=auto;html=1;exitX=0.75;exitY=1;exitDx=0;exitDy=0;entryX=0.75;entryY=0;entryDx=0;entryDy=0;fillColor=#d5e8d4;strokeColor=#82b366;verticalAlign=middle;textDirection=vertical-lr;horizontal=1;" parent="1" source="BDpEDTF0AWE_DL_EVBVq-1" target="zXt6T8_A0Qbx5lt6x_ep-57" edge="1">
          <mxGeometry x="0.375" relative="1" as="geometry">
            <mxPoint as="offset" />
          </mxGeometry>
        </mxCell>
        <mxCell id="b23-u13hWjBqwHDTTbJf-5" style="edgeStyle=orthogonalEdgeStyle;rounded=0;orthogonalLoop=1;jettySize=auto;html=1;exitX=0;exitY=0.5;exitDx=0;exitDy=0;entryX=1;entryY=0.5;entryDx=0;entryDy=0;" parent="1" source="BDpEDTF0AWE_DL_EVBVq-1" target="b23-u13hWjBqwHDTTbJf-3" edge="1">
          <mxGeometry relative="1" as="geometry" />
        </mxCell>
        <mxCell id="b23-u13hWjBqwHDTTbJf-6" style="edgeStyle=orthogonalEdgeStyle;rounded=0;orthogonalLoop=1;jettySize=auto;html=1;exitX=0;exitY=0.5;exitDx=0;exitDy=0;entryX=1;entryY=0.5;entryDx=0;entryDy=0;" parent="1" source="BDpEDTF0AWE_DL_EVBVq-1" target="b23-u13hWjBqwHDTTbJf-4" edge="1">
          <mxGeometry relative="1" as="geometry" />
        </mxCell>
        <mxCell id="TWWR-lM8KjQBj56lfUW2-2" style="edgeStyle=orthogonalEdgeStyle;rounded=0;orthogonalLoop=1;jettySize=auto;html=1;exitX=0.5;exitY=0;exitDx=0;exitDy=0;entryX=1;entryY=0.5;entryDx=0;entryDy=0;" parent="1" source="BDpEDTF0AWE_DL_EVBVq-1" target="TWWR-lM8KjQBj56lfUW2-1" edge="1">
          <mxGeometry relative="1" as="geometry" />
        </mxCell>
        <mxCell id="SgNSh5f6w930leUZRXvH-3" style="edgeStyle=orthogonalEdgeStyle;rounded=0;orthogonalLoop=1;jettySize=auto;html=1;exitX=0.5;exitY=0;exitDx=0;exitDy=0;entryX=0;entryY=0.5;entryDx=0;entryDy=0;" parent="1" source="BDpEDTF0AWE_DL_EVBVq-1" target="SgNSh5f6w930leUZRXvH-1" edge="1">
          <mxGeometry relative="1" as="geometry" />
        </mxCell>
        <mxCell id="BDpEDTF0AWE_DL_EVBVq-1" value="User" style="rounded=1;whiteSpace=wrap;html=1;" parent="1" vertex="1">
          <mxGeometry x="280" y="320" width="120" height="80" as="geometry" />
        </mxCell>
        <mxCell id="BDpEDTF0AWE_DL_EVBVq-3" value="Status" style="rounded=0;whiteSpace=wrap;html=1;" parent="1" vertex="1">
          <mxGeometry x="160" y="160" width="120" height="40" as="geometry" />
        </mxCell>
        <mxCell id="BDpEDTF0AWE_DL_EVBVq-8" style="edgeStyle=orthogonalEdgeStyle;rounded=0;orthogonalLoop=1;jettySize=auto;html=1;exitX=0;exitY=0.5;exitDx=0;exitDy=0;startArrow=classic;startFill=1;endArrow=none;" parent="1" source="BDpEDTF0AWE_DL_EVBVq-5" target="BDpEDTF0AWE_DL_EVBVq-1" edge="1">
          <mxGeometry relative="1" as="geometry" />
        </mxCell>
        <mxCell id="BDpEDTF0AWE_DL_EVBVq-10" value="" style="edgeStyle=orthogonalEdgeStyle;rounded=0;orthogonalLoop=1;jettySize=auto;html=1;startArrow=classic;startFill=1;" parent="1" source="BDpEDTF0AWE_DL_EVBVq-5" target="BDpEDTF0AWE_DL_EVBVq-9" edge="1">
          <mxGeometry relative="1" as="geometry" />
        </mxCell>
        <mxCell id="BDpEDTF0AWE_DL_EVBVq-5" value="Firstname" style="rounded=0;whiteSpace=wrap;html=1;" parent="1" vertex="1">
          <mxGeometry x="400" y="160" width="120" height="40" as="geometry" />
        </mxCell>
        <mxCell id="BDpEDTF0AWE_DL_EVBVq-9" value="Lastname" style="rounded=0;whiteSpace=wrap;html=1;" parent="1" vertex="1">
          <mxGeometry x="560" y="160" width="120" height="40" as="geometry" />
        </mxCell>
        <mxCell id="BDpEDTF0AWE_DL_EVBVq-11" value="Email" style="rounded=0;whiteSpace=wrap;html=1;" parent="1" vertex="1">
          <mxGeometry x="400" y="200" width="120" height="40" as="geometry" />
        </mxCell>
        <mxCell id="BDpEDTF0AWE_DL_EVBVq-22" value="" style="edgeStyle=orthogonalEdgeStyle;rounded=0;orthogonalLoop=1;jettySize=auto;html=1;startArrow=classic;startFill=1;" parent="1" source="BDpEDTF0AWE_DL_EVBVq-14" target="BDpEDTF0AWE_DL_EVBVq-21" edge="1">
          <mxGeometry relative="1" as="geometry" />
        </mxCell>
        <mxCell id="BDpEDTF0AWE_DL_EVBVq-14" value="Pasword Hash" style="rounded=0;whiteSpace=wrap;html=1;" parent="1" vertex="1">
          <mxGeometry x="400" y="240" width="120" height="40" as="geometry" />
        </mxCell>
        <mxCell id="zXt6T8_A0Qbx5lt6x_ep-78" style="edgeStyle=orthogonalEdgeStyle;rounded=0;orthogonalLoop=1;jettySize=auto;html=1;exitX=1;exitY=0.5;exitDx=0;exitDy=0;entryX=0;entryY=0.5;entryDx=0;entryDy=0;" parent="1" source="BDpEDTF0AWE_DL_EVBVq-17" target="zXt6T8_A0Qbx5lt6x_ep-76" edge="1">
          <mxGeometry relative="1" as="geometry" />
        </mxCell>
        <mxCell id="BDpEDTF0AWE_DL_EVBVq-17" value="ID UNIC" style="rounded=0;whiteSpace=wrap;html=1;fillColor=#ffe6cc;strokeColor=#d79b00;" parent="1" vertex="1">
          <mxGeometry x="280" y="40" width="120" height="40" as="geometry" />
        </mxCell>
        <mxCell id="BDpEDTF0AWE_DL_EVBVq-19" value="&lt;div&gt;Auth Key&lt;/div&gt;" style="rounded=0;whiteSpace=wrap;html=1;" parent="1" vertex="1">
          <mxGeometry x="160" y="200" width="120" height="40" as="geometry" />
        </mxCell>
        <mxCell id="BDpEDTF0AWE_DL_EVBVq-21" value="Password reset token" style="rounded=0;whiteSpace=wrap;html=1;" parent="1" vertex="1">
          <mxGeometry x="560" y="240" width="120" height="40" as="geometry" />
        </mxCell>
        <mxCell id="BDpEDTF0AWE_DL_EVBVq-23" value="Verification Key" style="rounded=0;whiteSpace=wrap;html=1;" parent="1" vertex="1">
          <mxGeometry x="160" y="240" width="120" height="40" as="geometry" />
        </mxCell>
        <mxCell id="BDpEDTF0AWE_DL_EVBVq-42" style="edgeStyle=orthogonalEdgeStyle;rounded=0;orthogonalLoop=1;jettySize=auto;html=1;exitX=0.5;exitY=0;exitDx=0;exitDy=0;entryX=0.5;entryY=1;entryDx=0;entryDy=0;" parent="1" source="BDpEDTF0AWE_DL_EVBVq-36" target="BDpEDTF0AWE_DL_EVBVq-41" edge="1">
          <mxGeometry relative="1" as="geometry" />
        </mxCell>
        <mxCell id="BDpEDTF0AWE_DL_EVBVq-60" style="edgeStyle=orthogonalEdgeStyle;rounded=0;orthogonalLoop=1;jettySize=auto;html=1;exitX=0.5;exitY=0;exitDx=0;exitDy=0;entryX=1;entryY=0.5;entryDx=0;entryDy=0;" parent="1" source="BDpEDTF0AWE_DL_EVBVq-36" target="BDpEDTF0AWE_DL_EVBVq-59" edge="1">
          <mxGeometry relative="1" as="geometry" />
        </mxCell>
        <mxCell id="BDpEDTF0AWE_DL_EVBVq-61" style="edgeStyle=orthogonalEdgeStyle;rounded=0;orthogonalLoop=1;jettySize=auto;html=1;exitX=0.5;exitY=0;exitDx=0;exitDy=0;entryX=0;entryY=0.5;entryDx=0;entryDy=0;" parent="1" source="BDpEDTF0AWE_DL_EVBVq-36" target="BDpEDTF0AWE_DL_EVBVq-58" edge="1">
          <mxGeometry relative="1" as="geometry" />
        </mxCell>
        <mxCell id="BDpEDTF0AWE_DL_EVBVq-98" value="MANY TO ONE" style="edgeStyle=orthogonalEdgeStyle;rounded=0;orthogonalLoop=1;jettySize=auto;html=1;exitX=0;exitY=0.75;exitDx=0;exitDy=0;entryX=1;entryY=0.75;entryDx=0;entryDy=0;fillColor=#d5e8d4;strokeColor=#82b366;" parent="1" source="BDpEDTF0AWE_DL_EVBVq-36" target="BDpEDTF0AWE_DL_EVBVq-1" edge="1">
          <mxGeometry relative="1" as="geometry" />
        </mxCell>
        <mxCell id="zXt6T8_A0Qbx5lt6x_ep-90" style="edgeStyle=orthogonalEdgeStyle;rounded=0;orthogonalLoop=1;jettySize=auto;html=1;exitX=0.5;exitY=0;exitDx=0;exitDy=0;entryX=1;entryY=0.5;entryDx=0;entryDy=0;" parent="1" source="BDpEDTF0AWE_DL_EVBVq-36" target="BDpEDTF0AWE_DL_EVBVq-82" edge="1">
          <mxGeometry relative="1" as="geometry" />
        </mxCell>
        <mxCell id="zXt6T8_A0Qbx5lt6x_ep-91" style="edgeStyle=orthogonalEdgeStyle;rounded=0;orthogonalLoop=1;jettySize=auto;html=1;exitX=0.5;exitY=0;exitDx=0;exitDy=0;entryX=1;entryY=0.5;entryDx=0;entryDy=0;" parent="1" source="BDpEDTF0AWE_DL_EVBVq-36" target="BDpEDTF0AWE_DL_EVBVq-52" edge="1">
          <mxGeometry relative="1" as="geometry" />
        </mxCell>
        <mxCell id="pmZ3VkrzZczNzY6PQVmS-1" style="edgeStyle=orthogonalEdgeStyle;rounded=0;orthogonalLoop=1;jettySize=auto;html=1;exitX=0.5;exitY=0;exitDx=0;exitDy=0;entryX=1;entryY=0.5;entryDx=0;entryDy=0;" edge="1" parent="1" source="BDpEDTF0AWE_DL_EVBVq-36" target="BDpEDTF0AWE_DL_EVBVq-51">
          <mxGeometry relative="1" as="geometry" />
        </mxCell>
        <mxCell id="pmZ3VkrzZczNzY6PQVmS-2" style="edgeStyle=orthogonalEdgeStyle;rounded=0;orthogonalLoop=1;jettySize=auto;html=1;exitX=0.5;exitY=0;exitDx=0;exitDy=0;entryX=1;entryY=0.5;entryDx=0;entryDy=0;" edge="1" parent="1" source="BDpEDTF0AWE_DL_EVBVq-36" target="BDpEDTF0AWE_DL_EVBVq-65">
          <mxGeometry relative="1" as="geometry" />
        </mxCell>
        <mxCell id="pmZ3VkrzZczNzY6PQVmS-5" style="edgeStyle=orthogonalEdgeStyle;rounded=0;orthogonalLoop=1;jettySize=auto;html=1;exitX=0.5;exitY=1;exitDx=0;exitDy=0;entryX=1;entryY=0.5;entryDx=0;entryDy=0;" edge="1" parent="1" source="BDpEDTF0AWE_DL_EVBVq-36" target="BDpEDTF0AWE_DL_EVBVq-72">
          <mxGeometry relative="1" as="geometry" />
        </mxCell>
        <mxCell id="pmZ3VkrzZczNzY6PQVmS-6" style="edgeStyle=orthogonalEdgeStyle;rounded=0;orthogonalLoop=1;jettySize=auto;html=1;exitX=0.5;exitY=1;exitDx=0;exitDy=0;entryX=0;entryY=0.5;entryDx=0;entryDy=0;" edge="1" parent="1" source="BDpEDTF0AWE_DL_EVBVq-36" target="BDpEDTF0AWE_DL_EVBVq-75">
          <mxGeometry relative="1" as="geometry" />
        </mxCell>
        <mxCell id="pmZ3VkrzZczNzY6PQVmS-11" style="edgeStyle=orthogonalEdgeStyle;rounded=0;orthogonalLoop=1;jettySize=auto;html=1;exitX=1;exitY=0.5;exitDx=0;exitDy=0;entryX=1;entryY=0.5;entryDx=0;entryDy=0;" edge="1" parent="1" source="BDpEDTF0AWE_DL_EVBVq-36" target="Z7HvO6-M0mpKmduFmXqY-6">
          <mxGeometry relative="1" as="geometry">
            <Array as="points">
              <mxPoint x="1100" y="360" />
              <mxPoint x="1100" y="600" />
            </Array>
          </mxGeometry>
        </mxCell>
        <mxCell id="pmZ3VkrzZczNzY6PQVmS-20" style="edgeStyle=orthogonalEdgeStyle;rounded=0;orthogonalLoop=1;jettySize=auto;html=1;exitX=0.5;exitY=0;exitDx=0;exitDy=0;entryX=0;entryY=0.5;entryDx=0;entryDy=0;" edge="1" parent="1" source="BDpEDTF0AWE_DL_EVBVq-36" target="pmZ3VkrzZczNzY6PQVmS-19">
          <mxGeometry relative="1" as="geometry" />
        </mxCell>
        <mxCell id="BDpEDTF0AWE_DL_EVBVq-36" value="&lt;div&gt;Article(s)&lt;/div&gt;" style="rounded=1;whiteSpace=wrap;html=1;glass=0;shadow=0;fillColor=#cdeb8b;strokeColor=#36393d;" parent="1" vertex="1">
          <mxGeometry x="840" y="320" width="120" height="80" as="geometry" />
        </mxCell>
        <mxCell id="zXt6T8_A0Qbx5lt6x_ep-77" style="edgeStyle=orthogonalEdgeStyle;rounded=0;orthogonalLoop=1;jettySize=auto;html=1;exitX=0;exitY=0.5;exitDx=0;exitDy=0;entryX=1;entryY=0.5;entryDx=0;entryDy=0;" parent="1" source="BDpEDTF0AWE_DL_EVBVq-41" target="zXt6T8_A0Qbx5lt6x_ep-76" edge="1">
          <mxGeometry relative="1" as="geometry" />
        </mxCell>
        <mxCell id="BDpEDTF0AWE_DL_EVBVq-41" value="ID UNIC" style="rounded=0;whiteSpace=wrap;html=1;fillColor=#ffe6cc;strokeColor=#d79b00;" parent="1" vertex="1">
          <mxGeometry x="840" y="40" width="120" height="40" as="geometry" />
        </mxCell>
        <mxCell id="BDpEDTF0AWE_DL_EVBVq-51" value="&lt;div&gt;Title&lt;/div&gt;" style="rounded=0;whiteSpace=wrap;html=1;" parent="1" vertex="1">
          <mxGeometry x="720" y="160" width="120" height="40" as="geometry" />
        </mxCell>
        <mxCell id="BDpEDTF0AWE_DL_EVBVq-52" value="Content" style="rounded=0;whiteSpace=wrap;html=1;" parent="1" vertex="1">
          <mxGeometry x="720" y="200" width="120" height="40" as="geometry" />
        </mxCell>
        <mxCell id="BDpEDTF0AWE_DL_EVBVq-53" value="&lt;div&gt;Created_at&lt;/div&gt;" style="rounded=0;whiteSpace=wrap;html=1;fillColor=#ffe6cc;strokeColor=#d79b00;" parent="1" vertex="1">
          <mxGeometry x="400" y="80" width="120" height="40" as="geometry" />
        </mxCell>
        <mxCell id="BDpEDTF0AWE_DL_EVBVq-55" value="Updated_at" style="rounded=0;whiteSpace=wrap;html=1;fillColor=#ffe6cc;strokeColor=#d79b00;" parent="1" vertex="1">
          <mxGeometry x="160" y="80" width="120" height="40" as="geometry" />
        </mxCell>
        <mxCell id="BDpEDTF0AWE_DL_EVBVq-58" value="&lt;div&gt;Created_at&lt;/div&gt;" style="rounded=0;whiteSpace=wrap;html=1;fillColor=#ffe6cc;strokeColor=#d79b00;" parent="1" vertex="1">
          <mxGeometry x="960" y="80" width="120" height="40" as="geometry" />
        </mxCell>
        <mxCell id="BDpEDTF0AWE_DL_EVBVq-59" value="Updated_at" style="rounded=0;whiteSpace=wrap;html=1;fillColor=#ffe6cc;strokeColor=#d79b00;" parent="1" vertex="1">
          <mxGeometry x="720" y="80" width="120" height="40" as="geometry" />
        </mxCell>
        <mxCell id="BDpEDTF0AWE_DL_EVBVq-65" value="Active? (Bool)" style="rounded=0;whiteSpace=wrap;html=1;fillColor=#fff2cc;strokeColor=#d6b656;" parent="1" vertex="1">
          <mxGeometry x="720" y="120" width="120" height="40" as="geometry" />
        </mxCell>
        <mxCell id="BDpEDTF0AWE_DL_EVBVq-67" value="Rating" style="rounded=0;whiteSpace=wrap;html=1;fillColor=#e1d5e7;strokeColor=#9673a6;" parent="1" vertex="1">
          <mxGeometry x="400" y="440" width="120" height="40" as="geometry" />
        </mxCell>
        <mxCell id="BDpEDTF0AWE_DL_EVBVq-68" value="&lt;div&gt;Points&lt;/div&gt;" style="rounded=0;whiteSpace=wrap;html=1;fillColor=#e1d5e7;strokeColor=#9673a6;" parent="1" vertex="1">
          <mxGeometry x="160" y="440" width="120" height="40" as="geometry" />
        </mxCell>
        <mxCell id="pmZ3VkrzZczNzY6PQVmS-8" style="edgeStyle=orthogonalEdgeStyle;rounded=0;orthogonalLoop=1;jettySize=auto;html=1;exitX=0.5;exitY=1;exitDx=0;exitDy=0;entryX=0.5;entryY=1;entryDx=0;entryDy=0;fillColor=#e1d5e7;strokeColor=#9673a6;" edge="1" parent="1" source="BDpEDTF0AWE_DL_EVBVq-71" target="BDpEDTF0AWE_DL_EVBVq-68">
          <mxGeometry relative="1" as="geometry" />
        </mxCell>
        <mxCell id="BDpEDTF0AWE_DL_EVBVq-71" value="Points Gathered" style="rounded=0;whiteSpace=wrap;html=1;fillColor=#e1d5e7;strokeColor=#9673a6;" parent="1" vertex="1">
          <mxGeometry x="840" y="480" width="120" height="40" as="geometry" />
        </mxCell>
        <mxCell id="zXt6T8_A0Qbx5lt6x_ep-5" style="edgeStyle=orthogonalEdgeStyle;rounded=0;orthogonalLoop=1;jettySize=auto;html=1;exitX=0;exitY=0.5;exitDx=0;exitDy=0;entryX=1;entryY=0.5;entryDx=0;entryDy=0;fillColor=#e1d5e7;strokeColor=#9673a6;" parent="1" source="BDpEDTF0AWE_DL_EVBVq-72" target="BDpEDTF0AWE_DL_EVBVq-67" edge="1">
          <mxGeometry relative="1" as="geometry" />
        </mxCell>
        <mxCell id="BDpEDTF0AWE_DL_EVBVq-72" value="Bought Units" style="rounded=0;whiteSpace=wrap;html=1;fillColor=#e1d5e7;strokeColor=#9673a6;" parent="1" vertex="1">
          <mxGeometry x="720" y="440" width="120" height="40" as="geometry" />
        </mxCell>
        <mxCell id="pmZ3VkrzZczNzY6PQVmS-7" value="10%" style="edgeStyle=orthogonalEdgeStyle;rounded=0;orthogonalLoop=1;jettySize=auto;html=1;exitX=0.5;exitY=1;exitDx=0;exitDy=0;entryX=1;entryY=0.5;entryDx=0;entryDy=0;fillColor=#e1d5e7;strokeColor=#9673a6;" edge="1" parent="1" source="BDpEDTF0AWE_DL_EVBVq-75" target="BDpEDTF0AWE_DL_EVBVq-71">
          <mxGeometry relative="1" as="geometry" />
        </mxCell>
        <mxCell id="BDpEDTF0AWE_DL_EVBVq-75" value="Price?" style="rounded=0;whiteSpace=wrap;html=1;fillColor=#e1d5e7;strokeColor=#9673a6;" parent="1" vertex="1">
          <mxGeometry x="960" y="440" width="120" height="40" as="geometry" />
        </mxCell>
        <mxCell id="BDpEDTF0AWE_DL_EVBVq-82" value="Description" style="rounded=0;whiteSpace=wrap;html=1;" parent="1" vertex="1">
          <mxGeometry x="720" y="240" width="120" height="40" as="geometry" />
        </mxCell>
        <mxCell id="zXt6T8_A0Qbx5lt6x_ep-27" value="Actions &amp;amp; Abstractization Layers" style="swimlane;horizontal=1;whiteSpace=wrap;html=1;fillStyle=auto;rounded=0;glass=0;swimlaneFillColor=none;fillColor=#d5e8d4;shadow=0;strokeColor=#82b366;" parent="1" vertex="1">
          <mxGeometry x="1120" width="480" height="320" as="geometry" />
        </mxCell>
        <mxCell id="zXt6T8_A0Qbx5lt6x_ep-17" value="Course Abstractization Layer" style="swimlane;swimlaneFillColor=default;" parent="zXt6T8_A0Qbx5lt6x_ep-27" vertex="1">
          <mxGeometry x="99.5" y="150" width="281" height="120" as="geometry" />
        </mxCell>
        <mxCell id="zXt6T8_A0Qbx5lt6x_ep-18" value="USER ID" style="rounded=1;whiteSpace=wrap;html=1;" parent="zXt6T8_A0Qbx5lt6x_ep-17" vertex="1">
          <mxGeometry x="160" y="50" width="80" height="40" as="geometry" />
        </mxCell>
        <mxCell id="zXt6T8_A0Qbx5lt6x_ep-19" style="edgeStyle=orthogonalEdgeStyle;rounded=0;orthogonalLoop=1;jettySize=auto;html=1;exitX=1;exitY=0.5;exitDx=0;exitDy=0;entryX=0;entryY=0.5;entryDx=0;entryDy=0;" parent="zXt6T8_A0Qbx5lt6x_ep-17" source="zXt6T8_A0Qbx5lt6x_ep-20" target="zXt6T8_A0Qbx5lt6x_ep-18" edge="1">
          <mxGeometry relative="1" as="geometry" />
        </mxCell>
        <mxCell id="zXt6T8_A0Qbx5lt6x_ep-20" value="COURSE ID" style="rounded=1;whiteSpace=wrap;html=1;" parent="zXt6T8_A0Qbx5lt6x_ep-17" vertex="1">
          <mxGeometry x="40" y="50" width="80" height="40" as="geometry" />
        </mxCell>
        <mxCell id="zXt6T8_A0Qbx5lt6x_ep-22" value="Enroll in Course" style="swimlane;childLayout=stackLayout;horizontal=1;fillColor=none;horizontalStack=1;resizeParent=1;resizeParentMax=0;resizeLast=0;collapsible=0;strokeColor=none;stackBorder=10;stackSpacing=-12;resizable=1;align=center;points=[];whiteSpace=wrap;html=1;" parent="zXt6T8_A0Qbx5lt6x_ep-27" vertex="1">
          <mxGeometry x="19" y="40" width="442" height="100" as="geometry" />
        </mxCell>
        <mxCell id="zXt6T8_A0Qbx5lt6x_ep-23" value="Find User ID" style="shape=step;perimeter=stepPerimeter;fixedSize=1;points=[];whiteSpace=wrap;html=1;" parent="zXt6T8_A0Qbx5lt6x_ep-22" vertex="1">
          <mxGeometry x="10" y="33" width="130" height="57" as="geometry" />
        </mxCell>
        <mxCell id="zXt6T8_A0Qbx5lt6x_ep-24" value="Find Course ID" style="shape=step;perimeter=stepPerimeter;fixedSize=1;points=[];whiteSpace=wrap;html=1;" parent="zXt6T8_A0Qbx5lt6x_ep-22" vertex="1">
          <mxGeometry x="128" y="33" width="162" height="57" as="geometry" />
        </mxCell>
        <mxCell id="zXt6T8_A0Qbx5lt6x_ep-25" value="Attribute it in the abstractization layer" style="shape=step;perimeter=stepPerimeter;fixedSize=1;points=[];whiteSpace=wrap;html=1;" parent="zXt6T8_A0Qbx5lt6x_ep-22" vertex="1">
          <mxGeometry x="278" y="33" width="154" height="57" as="geometry" />
        </mxCell>
        <mxCell id="zXt6T8_A0Qbx5lt6x_ep-63" style="edgeStyle=orthogonalEdgeStyle;rounded=0;orthogonalLoop=1;jettySize=auto;html=1;exitX=1;exitY=0.5;exitDx=0;exitDy=0;entryX=0.5;entryY=0;entryDx=0;entryDy=0;" parent="1" source="zXt6T8_A0Qbx5lt6x_ep-57" target="zXt6T8_A0Qbx5lt6x_ep-59" edge="1">
          <mxGeometry relative="1" as="geometry" />
        </mxCell>
        <mxCell id="zXt6T8_A0Qbx5lt6x_ep-64" style="edgeStyle=orthogonalEdgeStyle;rounded=0;orthogonalLoop=1;jettySize=auto;html=1;exitX=1;exitY=0.5;exitDx=0;exitDy=0;entryX=0.5;entryY=0;entryDx=0;entryDy=0;" parent="1" source="zXt6T8_A0Qbx5lt6x_ep-57" target="zXt6T8_A0Qbx5lt6x_ep-60" edge="1">
          <mxGeometry relative="1" as="geometry" />
        </mxCell>
        <mxCell id="zXt6T8_A0Qbx5lt6x_ep-70" style="edgeStyle=orthogonalEdgeStyle;rounded=0;orthogonalLoop=1;jettySize=auto;html=1;exitX=1;exitY=0.5;exitDx=0;exitDy=0;entryX=0.5;entryY=1;entryDx=0;entryDy=0;" parent="1" source="zXt6T8_A0Qbx5lt6x_ep-57" target="zXt6T8_A0Qbx5lt6x_ep-68" edge="1">
          <mxGeometry relative="1" as="geometry" />
        </mxCell>
        <mxCell id="zXt6T8_A0Qbx5lt6x_ep-71" style="edgeStyle=orthogonalEdgeStyle;rounded=0;orthogonalLoop=1;jettySize=auto;html=1;exitX=1;exitY=0.5;exitDx=0;exitDy=0;entryX=0.5;entryY=1;entryDx=0;entryDy=0;" parent="1" source="zXt6T8_A0Qbx5lt6x_ep-57" target="zXt6T8_A0Qbx5lt6x_ep-65" edge="1">
          <mxGeometry relative="1" as="geometry" />
        </mxCell>
        <mxCell id="zXt6T8_A0Qbx5lt6x_ep-99" style="edgeStyle=orthogonalEdgeStyle;rounded=0;orthogonalLoop=1;jettySize=auto;html=1;exitX=1;exitY=0.5;exitDx=0;exitDy=0;entryX=0.5;entryY=1;entryDx=0;entryDy=0;" parent="1" source="zXt6T8_A0Qbx5lt6x_ep-57" target="zXt6T8_A0Qbx5lt6x_ep-94" edge="1">
          <mxGeometry relative="1" as="geometry" />
        </mxCell>
        <mxCell id="zXt6T8_A0Qbx5lt6x_ep-100" style="edgeStyle=orthogonalEdgeStyle;rounded=0;orthogonalLoop=1;jettySize=auto;html=1;exitX=1;exitY=0.5;exitDx=0;exitDy=0;entryX=0.5;entryY=1;entryDx=0;entryDy=0;" parent="1" source="zXt6T8_A0Qbx5lt6x_ep-57" target="zXt6T8_A0Qbx5lt6x_ep-95" edge="1">
          <mxGeometry relative="1" as="geometry" />
        </mxCell>
        <mxCell id="zXt6T8_A0Qbx5lt6x_ep-105" style="edgeStyle=orthogonalEdgeStyle;rounded=0;orthogonalLoop=1;jettySize=auto;html=1;exitX=1;exitY=0.5;exitDx=0;exitDy=0;entryX=0.5;entryY=0;entryDx=0;entryDy=0;" parent="1" source="zXt6T8_A0Qbx5lt6x_ep-57" target="zXt6T8_A0Qbx5lt6x_ep-67" edge="1">
          <mxGeometry relative="1" as="geometry" />
        </mxCell>
        <mxCell id="zXt6T8_A0Qbx5lt6x_ep-112" value="MANY TO ONE" style="edgeStyle=orthogonalEdgeStyle;rounded=0;orthogonalLoop=1;jettySize=auto;html=1;exitX=0.25;exitY=0;exitDx=0;exitDy=0;entryX=0.25;entryY=1;entryDx=0;entryDy=0;fillColor=#d5e8d4;strokeColor=#82b366;textDirection=vertical-lr;" parent="1" source="zXt6T8_A0Qbx5lt6x_ep-57" target="BDpEDTF0AWE_DL_EVBVq-1" edge="1">
          <mxGeometry x="-0.375" relative="1" as="geometry">
            <mxPoint as="offset" />
          </mxGeometry>
        </mxCell>
        <mxCell id="pmZ3VkrzZczNzY6PQVmS-10" style="edgeStyle=orthogonalEdgeStyle;rounded=0;orthogonalLoop=1;jettySize=auto;html=1;exitX=1;exitY=0.5;exitDx=0;exitDy=0;entryX=0;entryY=0.5;entryDx=0;entryDy=0;" edge="1" parent="1" source="zXt6T8_A0Qbx5lt6x_ep-57" target="Z7HvO6-M0mpKmduFmXqY-6">
          <mxGeometry relative="1" as="geometry">
            <Array as="points">
              <mxPoint x="800" y="760" />
              <mxPoint x="800" y="600" />
            </Array>
          </mxGeometry>
        </mxCell>
        <mxCell id="pmZ3VkrzZczNzY6PQVmS-23" style="edgeStyle=orthogonalEdgeStyle;rounded=0;orthogonalLoop=1;jettySize=auto;html=1;exitX=1;exitY=0.5;exitDx=0;exitDy=0;entryX=0.5;entryY=0;entryDx=0;entryDy=0;" edge="1" parent="1" source="zXt6T8_A0Qbx5lt6x_ep-57" target="pmZ3VkrzZczNzY6PQVmS-21">
          <mxGeometry relative="1" as="geometry" />
        </mxCell>
        <mxCell id="pmZ3VkrzZczNzY6PQVmS-24" style="edgeStyle=orthogonalEdgeStyle;rounded=0;orthogonalLoop=1;jettySize=auto;html=1;exitX=1;exitY=0.5;exitDx=0;exitDy=0;entryX=0.5;entryY=0;entryDx=0;entryDy=0;" edge="1" parent="1" source="zXt6T8_A0Qbx5lt6x_ep-57" target="zXt6T8_A0Qbx5lt6x_ep-69">
          <mxGeometry relative="1" as="geometry" />
        </mxCell>
        <mxCell id="zXt6T8_A0Qbx5lt6x_ep-57" value="&lt;div&gt;Course(s)&lt;/div&gt;" style="rounded=1;whiteSpace=wrap;html=1;glass=0;shadow=0;fillColor=#cdeb8b;strokeColor=#36393d;" parent="1" vertex="1">
          <mxGeometry x="280" y="720" width="120" height="80" as="geometry" />
        </mxCell>
        <mxCell id="zXt6T8_A0Qbx5lt6x_ep-59" value="Title" style="rounded=0;whiteSpace=wrap;html=1;" parent="1" vertex="1">
          <mxGeometry x="600" y="800" width="80" height="40" as="geometry" />
        </mxCell>
        <mxCell id="zXt6T8_A0Qbx5lt6x_ep-60" value="Description" style="rounded=0;whiteSpace=wrap;html=1;" parent="1" vertex="1">
          <mxGeometry x="680" y="800" width="80" height="40" as="geometry" />
        </mxCell>
        <mxCell id="zXt6T8_A0Qbx5lt6x_ep-80" value="" style="edgeStyle=orthogonalEdgeStyle;rounded=0;orthogonalLoop=1;jettySize=auto;html=1;" parent="1" source="zXt6T8_A0Qbx5lt6x_ep-65" target="zXt6T8_A0Qbx5lt6x_ep-79" edge="1">
          <mxGeometry relative="1" as="geometry" />
        </mxCell>
        <mxCell id="zXt6T8_A0Qbx5lt6x_ep-65" value="ID UNIC" style="rounded=0;whiteSpace=wrap;html=1;fillColor=#ffe6cc;strokeColor=#d79b00;" parent="1" vertex="1">
          <mxGeometry x="520" y="680" width="80" height="40" as="geometry" />
        </mxCell>
        <mxCell id="zXt6T8_A0Qbx5lt6x_ep-67" value="&lt;div&gt;Created_at&lt;/div&gt;" style="rounded=0;whiteSpace=wrap;html=1;fillColor=#ffe6cc;strokeColor=#d79b00;" parent="1" vertex="1">
          <mxGeometry x="440" y="800" width="80" height="40" as="geometry" />
        </mxCell>
        <mxCell id="zXt6T8_A0Qbx5lt6x_ep-68" value="Updated_at" style="rounded=0;whiteSpace=wrap;html=1;fillColor=#ffe6cc;strokeColor=#d79b00;" parent="1" vertex="1">
          <mxGeometry x="440" y="680" width="80" height="40" as="geometry" />
        </mxCell>
        <mxCell id="zXt6T8_A0Qbx5lt6x_ep-69" value="Active? (Bool)" style="rounded=0;whiteSpace=wrap;html=1;fillColor=#fff2cc;strokeColor=#d6b656;" parent="1" vertex="1">
          <mxGeometry x="520" y="800" width="80" height="40" as="geometry" />
        </mxCell>
        <mxCell id="zXt6T8_A0Qbx5lt6x_ep-76" value="Abstractization layers" style="rounded=0;whiteSpace=wrap;html=1;fillColor=#d5e8d4;strokeColor=#82b366;" parent="1" vertex="1">
          <mxGeometry x="560" y="40" width="120" height="40" as="geometry" />
        </mxCell>
        <mxCell id="zXt6T8_A0Qbx5lt6x_ep-79" value="Abstactization Layers" style="rounded=0;whiteSpace=wrap;html=1;fillColor=#d5e8d4;strokeColor=#82b366;" parent="1" vertex="1">
          <mxGeometry x="520" y="600" width="80" height="40" as="geometry" />
        </mxCell>
        <mxCell id="zXt6T8_A0Qbx5lt6x_ep-104" style="edgeStyle=orthogonalEdgeStyle;rounded=0;orthogonalLoop=1;jettySize=auto;html=1;exitX=0.5;exitY=0;exitDx=0;exitDy=0;entryX=0.5;entryY=1;entryDx=0;entryDy=0;fillColor=#e1d5e7;strokeColor=#9673a6;" parent="1" source="zXt6T8_A0Qbx5lt6x_ep-93" target="BDpEDTF0AWE_DL_EVBVq-68" edge="1">
          <mxGeometry relative="1" as="geometry">
            <Array as="points">
              <mxPoint x="680" y="540" />
              <mxPoint x="220" y="540" />
            </Array>
          </mxGeometry>
        </mxCell>
        <mxCell id="zXt6T8_A0Qbx5lt6x_ep-93" value="Points Gathered" style="rounded=0;whiteSpace=wrap;html=1;fillColor=#e1d5e7;strokeColor=#9673a6;" parent="1" vertex="1">
          <mxGeometry x="600" y="560" width="160" height="40" as="geometry" />
        </mxCell>
        <mxCell id="zXt6T8_A0Qbx5lt6x_ep-116" style="edgeStyle=orthogonalEdgeStyle;rounded=0;orthogonalLoop=1;jettySize=auto;html=1;exitX=0.5;exitY=0;exitDx=0;exitDy=0;entryX=0.5;entryY=1;entryDx=0;entryDy=0;fillColor=#e1d5e7;strokeColor=#9673a6;" parent="1" source="zXt6T8_A0Qbx5lt6x_ep-94" target="zXt6T8_A0Qbx5lt6x_ep-93" edge="1">
          <mxGeometry relative="1" as="geometry">
            <Array as="points">
              <mxPoint x="720" y="640" />
              <mxPoint x="760" y="640" />
            </Array>
          </mxGeometry>
        </mxCell>
        <mxCell id="zXt6T8_A0Qbx5lt6x_ep-94" value="Bought Units" style="rounded=0;whiteSpace=wrap;html=1;fillColor=#e1d5e7;strokeColor=#9673a6;" parent="1" vertex="1">
          <mxGeometry x="600" y="680" width="80" height="40" as="geometry" />
        </mxCell>
        <mxCell id="pmZ3VkrzZczNzY6PQVmS-9" value="10%" style="edgeStyle=orthogonalEdgeStyle;rounded=0;orthogonalLoop=1;jettySize=auto;html=1;exitX=0.5;exitY=0;exitDx=0;exitDy=0;entryX=0.5;entryY=1;entryDx=0;entryDy=0;align=left;fillColor=#e1d5e7;strokeColor=#9673a6;" edge="1" parent="1" source="zXt6T8_A0Qbx5lt6x_ep-95" target="zXt6T8_A0Qbx5lt6x_ep-93">
          <mxGeometry relative="1" as="geometry" />
        </mxCell>
        <mxCell id="zXt6T8_A0Qbx5lt6x_ep-95" value="Price?" style="rounded=0;whiteSpace=wrap;html=1;fillColor=#e1d5e7;strokeColor=#9673a6;" parent="1" vertex="1">
          <mxGeometry x="680" y="680" width="80" height="40" as="geometry" />
        </mxCell>
        <mxCell id="pmZ3VkrzZczNzY6PQVmS-13" value="" style="edgeStyle=orthogonalEdgeStyle;rounded=0;orthogonalLoop=1;jettySize=auto;html=1;" edge="1" parent="1" source="b23-u13hWjBqwHDTTbJf-3" target="pmZ3VkrzZczNzY6PQVmS-12">
          <mxGeometry relative="1" as="geometry">
            <Array as="points">
              <mxPoint x="60" y="320" />
            </Array>
          </mxGeometry>
        </mxCell>
        <mxCell id="b23-u13hWjBqwHDTTbJf-3" value="Bought Course(s)" style="rounded=0;whiteSpace=wrap;html=1;fillColor=#d5e8d4;strokeColor=#82b366;" parent="1" vertex="1">
          <mxGeometry x="120" y="300" width="120" height="40" as="geometry" />
        </mxCell>
        <mxCell id="pmZ3VkrzZczNzY6PQVmS-18" value="" style="edgeStyle=orthogonalEdgeStyle;rounded=0;orthogonalLoop=1;jettySize=auto;html=1;" edge="1" parent="1" source="b23-u13hWjBqwHDTTbJf-4" target="pmZ3VkrzZczNzY6PQVmS-17">
          <mxGeometry relative="1" as="geometry">
            <Array as="points">
              <mxPoint x="100" y="400" />
            </Array>
          </mxGeometry>
        </mxCell>
        <mxCell id="b23-u13hWjBqwHDTTbJf-4" value="Bought Article(s)" style="rounded=0;whiteSpace=wrap;html=1;fillColor=#d5e8d4;strokeColor=#82b366;" parent="1" vertex="1">
          <mxGeometry x="120" y="380" width="120" height="40" as="geometry" />
        </mxCell>
        <mxCell id="TWWR-lM8KjQBj56lfUW2-1" value="Last Login Time" style="rounded=0;whiteSpace=wrap;html=1;fillColor=#ffe6cc;strokeColor=#d79b00;" parent="1" vertex="1">
          <mxGeometry x="160" y="120" width="120" height="40" as="geometry" />
        </mxCell>
        <mxCell id="Z7HvO6-M0mpKmduFmXqY-6" value="&lt;div&gt;Abstactization Layers&lt;/div&gt;COMMENTS" style="rounded=0;whiteSpace=wrap;html=1;fillColor=#d5e8d4;strokeColor=#82b366;" parent="1" vertex="1">
          <mxGeometry x="840" y="560" width="120" height="80" as="geometry" />
        </mxCell>
        <mxCell id="SgNSh5f6w930leUZRXvH-1" value="Phone Number" style="rounded=0;whiteSpace=wrap;html=1;" parent="1" vertex="1">
          <mxGeometry x="400" y="120" width="120" height="40" as="geometry" />
        </mxCell>
        <mxCell id="pmZ3VkrzZczNzY6PQVmS-12" value="SQL query&lt;div&gt;COUNT in enroll_course&lt;/div&gt;" style="rounded=0;whiteSpace=wrap;html=1;fillColor=#d5e8d4;strokeColor=#82b366;" vertex="1" parent="1">
          <mxGeometry x="40" y="720" width="120" height="80" as="geometry" />
        </mxCell>
        <mxCell id="pmZ3VkrzZczNzY6PQVmS-17" value="SQL query&lt;div&gt;COUNT in enroll_article&lt;/div&gt;" style="rounded=0;whiteSpace=wrap;html=1;fillColor=#d5e8d4;strokeColor=#82b366;" vertex="1" parent="1">
          <mxGeometry x="80" y="600" width="120" height="80" as="geometry" />
        </mxCell>
        <mxCell id="pmZ3VkrzZczNzY6PQVmS-19" value="USER ID" style="rounded=0;whiteSpace=wrap;html=1;fillColor=#dae8fc;strokeColor=#6c8ebf;" vertex="1" parent="1">
          <mxGeometry x="960" y="120" width="120" height="40" as="geometry" />
        </mxCell>
        <mxCell id="pmZ3VkrzZczNzY6PQVmS-21" value="USER ID" style="rounded=0;whiteSpace=wrap;html=1;fillColor=#dae8fc;strokeColor=#6c8ebf;" vertex="1" parent="1">
          <mxGeometry x="760" y="800" width="80" height="40" as="geometry" />
        </mxCell>
      </root>
    </mxGraphModel>
  </diagram>
</mxfile>
